<mxfile host="app.diagrams.net" modified="2022-07-20T01:21:38.914Z" agent="5.0 (Macintosh)" etag="XqhrnWpL0ko8P2M62D4A" version="20.0.1" type="github">
  <diagram id="dfy3F8uDQ1-Ea8STjgPl" name="Page-1">
    <mxGraphModel dx="2233" dy="800" grid="1" gridSize="10" guides="1" tooltips="1" connect="1" arrows="1" fold="1" page="1" pageScale="1" pageWidth="850" pageHeight="1100" math="0" shadow="0">
      <root>
        <mxCell id="0" />
        <mxCell id="1" parent="0" />
        <mxCell id="bn2ZPGk8-MvQFLuwIkzj-34" value="" style="rounded=0;whiteSpace=wrap;html=1;" vertex="1" parent="1">
          <mxGeometry x="-40" y="40" width="1090" height="480" as="geometry" />
        </mxCell>
        <mxCell id="bn2ZPGk8-MvQFLuwIkzj-1" value="" style="rounded=1;whiteSpace=wrap;html=1;" vertex="1" parent="1">
          <mxGeometry x="-6" y="140" width="200" height="200" as="geometry" />
        </mxCell>
        <mxCell id="bn2ZPGk8-MvQFLuwIkzj-2" value="" style="aspect=fixed;perimeter=ellipsePerimeter;html=1;align=center;shadow=0;dashed=0;spacingTop=3;image;image=img/lib/active_directory/generic_server.svg;" vertex="1" parent="1">
          <mxGeometry x="20" y="190" width="28.000000000000004" height="50" as="geometry" />
        </mxCell>
        <mxCell id="bn2ZPGk8-MvQFLuwIkzj-3" value="" style="aspect=fixed;perimeter=ellipsePerimeter;html=1;align=center;shadow=0;dashed=0;spacingTop=3;image;image=img/lib/active_directory/generic_server.svg;" vertex="1" parent="1">
          <mxGeometry x="121" y="182.5" width="28.000000000000004" height="50" as="geometry" />
        </mxCell>
        <mxCell id="bn2ZPGk8-MvQFLuwIkzj-4" value="" style="aspect=fixed;perimeter=ellipsePerimeter;html=1;align=center;shadow=0;dashed=0;spacingTop=3;image;image=img/lib/active_directory/generic_server.svg;" vertex="1" parent="1">
          <mxGeometry x="70" y="260" width="28.000000000000004" height="50" as="geometry" />
        </mxCell>
        <mxCell id="bn2ZPGk8-MvQFLuwIkzj-6" value="&lt;div align=&quot;left&quot;&gt;&lt;br&gt;&lt;/div&gt;" style="rounded=1;whiteSpace=wrap;html=1;" vertex="1" parent="1">
          <mxGeometry x="630" y="120" width="240" height="280" as="geometry" />
        </mxCell>
        <mxCell id="bn2ZPGk8-MvQFLuwIkzj-28" style="edgeStyle=orthogonalEdgeStyle;rounded=0;orthogonalLoop=1;jettySize=auto;html=1;" edge="1" parent="1" source="bn2ZPGk8-MvQFLuwIkzj-7" target="bn2ZPGk8-MvQFLuwIkzj-19">
          <mxGeometry relative="1" as="geometry">
            <Array as="points">
              <mxPoint x="510" y="182" />
              <mxPoint x="510" y="251" />
            </Array>
          </mxGeometry>
        </mxCell>
        <mxCell id="bn2ZPGk8-MvQFLuwIkzj-7" value="Direct Connect" style="sketch=0;points=[[0,0,0],[0.25,0,0],[0.5,0,0],[0.75,0,0],[1,0,0],[0,1,0],[0.25,1,0],[0.5,1,0],[0.75,1,0],[1,1,0],[0,0.25,0],[0,0.5,0],[0,0.75,0],[1,0.25,0],[1,0.5,0],[1,0.75,0]];outlineConnect=0;fontColor=#232F3E;gradientColor=#945DF2;gradientDirection=north;fillColor=#5A30B5;strokeColor=#ffffff;dashed=0;verticalLabelPosition=bottom;verticalAlign=top;align=center;html=1;fontSize=12;fontStyle=0;aspect=fixed;shape=mxgraph.aws4.resourceIcon;resIcon=mxgraph.aws4.direct_connect;" vertex="1" parent="1">
          <mxGeometry x="367" y="152.5" width="58" height="58" as="geometry" />
        </mxCell>
        <mxCell id="bn2ZPGk8-MvQFLuwIkzj-8" value="S3" style="sketch=0;points=[[0,0,0],[0.25,0,0],[0.5,0,0],[0.75,0,0],[1,0,0],[0,1,0],[0.25,1,0],[0.5,1,0],[0.75,1,0],[1,1,0],[0,0.25,0],[0,0.5,0],[0,0.75,0],[1,0.25,0],[1,0.5,0],[1,0.75,0]];outlineConnect=0;fontColor=#232F3E;gradientColor=#60A337;gradientDirection=north;fillColor=#277116;strokeColor=#ffffff;dashed=0;verticalLabelPosition=bottom;verticalAlign=top;align=center;html=1;fontSize=12;fontStyle=0;aspect=fixed;shape=mxgraph.aws4.resourceIcon;resIcon=mxgraph.aws4.s3;" vertex="1" parent="1">
          <mxGeometry x="910" y="151.5" width="60" height="60" as="geometry" />
        </mxCell>
        <mxCell id="bn2ZPGk8-MvQFLuwIkzj-9" value="Amazon EC2" style="sketch=0;outlineConnect=0;fontColor=#232F3E;gradientColor=none;strokeColor=#ffffff;fillColor=#232F3E;dashed=0;verticalLabelPosition=middle;verticalAlign=bottom;align=center;html=1;whiteSpace=wrap;fontSize=10;fontStyle=1;spacing=3;shape=mxgraph.aws4.productIcon;prIcon=mxgraph.aws4.ec2;" vertex="1" parent="1">
          <mxGeometry x="662.5" y="160" width="57.5" height="90" as="geometry" />
        </mxCell>
        <mxCell id="bn2ZPGk8-MvQFLuwIkzj-10" value="VPC" style="text;html=1;resizable=0;autosize=1;align=center;verticalAlign=middle;points=[];fillColor=none;strokeColor=none;rounded=0;" vertex="1" parent="1">
          <mxGeometry x="710" y="420" width="40" height="20" as="geometry" />
        </mxCell>
        <mxCell id="bn2ZPGk8-MvQFLuwIkzj-29" style="edgeStyle=orthogonalEdgeStyle;rounded=0;orthogonalLoop=1;jettySize=auto;html=1;" edge="1" parent="1" source="bn2ZPGk8-MvQFLuwIkzj-11" target="bn2ZPGk8-MvQFLuwIkzj-19">
          <mxGeometry relative="1" as="geometry">
            <Array as="points">
              <mxPoint x="510" y="299" />
              <mxPoint x="510" y="251" />
            </Array>
          </mxGeometry>
        </mxCell>
        <mxCell id="bn2ZPGk8-MvQFLuwIkzj-11" value="Site-to-Site VPN" style="sketch=0;points=[[0,0,0],[0.25,0,0],[0.5,0,0],[0.75,0,0],[1,0,0],[0,1,0],[0.25,1,0],[0.5,1,0],[0.75,1,0],[1,1,0],[0,0.25,0],[0,0.5,0],[0,0.75,0],[1,0.25,0],[1,0.5,0],[1,0.75,0]];outlineConnect=0;fontColor=#232F3E;gradientColor=#945DF2;gradientDirection=north;fillColor=#5A30B5;strokeColor=#ffffff;dashed=0;verticalLabelPosition=bottom;verticalAlign=top;align=center;html=1;fontSize=12;fontStyle=0;aspect=fixed;shape=mxgraph.aws4.resourceIcon;resIcon=mxgraph.aws4.site_to_site_vpn;" vertex="1" parent="1">
          <mxGeometry x="367" y="270.5" width="57" height="57" as="geometry" />
        </mxCell>
        <mxCell id="bn2ZPGk8-MvQFLuwIkzj-22" style="edgeStyle=orthogonalEdgeStyle;rounded=0;orthogonalLoop=1;jettySize=auto;html=1;entryX=0;entryY=0.5;entryDx=0;entryDy=0;entryPerimeter=0;" edge="1" parent="1" source="bn2ZPGk8-MvQFLuwIkzj-18" target="bn2ZPGk8-MvQFLuwIkzj-7">
          <mxGeometry relative="1" as="geometry" />
        </mxCell>
        <mxCell id="bn2ZPGk8-MvQFLuwIkzj-23" style="edgeStyle=orthogonalEdgeStyle;rounded=0;orthogonalLoop=1;jettySize=auto;html=1;" edge="1" parent="1" source="bn2ZPGk8-MvQFLuwIkzj-18" target="bn2ZPGk8-MvQFLuwIkzj-11">
          <mxGeometry relative="1" as="geometry" />
        </mxCell>
        <mxCell id="bn2ZPGk8-MvQFLuwIkzj-18" value="Customer Gateway" style="sketch=0;outlineConnect=0;fontColor=#232F3E;gradientColor=none;fillColor=#4D27AA;strokeColor=none;dashed=0;verticalLabelPosition=bottom;verticalAlign=top;align=center;html=1;fontSize=12;fontStyle=0;aspect=fixed;pointerEvents=1;shape=mxgraph.aws4.customer_gateway;" vertex="1" parent="1">
          <mxGeometry x="170" y="220.5" width="50" height="50" as="geometry" />
        </mxCell>
        <mxCell id="bn2ZPGk8-MvQFLuwIkzj-27" style="edgeStyle=orthogonalEdgeStyle;rounded=0;orthogonalLoop=1;jettySize=auto;html=1;" edge="1" parent="1" source="bn2ZPGk8-MvQFLuwIkzj-19" target="bn2ZPGk8-MvQFLuwIkzj-20">
          <mxGeometry relative="1" as="geometry" />
        </mxCell>
        <mxCell id="bn2ZPGk8-MvQFLuwIkzj-19" value="Virtual Private Gateway" style="sketch=0;outlineConnect=0;fontColor=#232F3E;gradientColor=none;fillColor=#4D27AA;strokeColor=none;dashed=0;verticalLabelPosition=bottom;verticalAlign=top;align=center;html=1;fontSize=12;fontStyle=0;aspect=fixed;pointerEvents=1;shape=mxgraph.aws4.vpn_gateway;" vertex="1" parent="1">
          <mxGeometry x="602.5" y="220.5" width="60" height="60" as="geometry" />
        </mxCell>
        <mxCell id="bn2ZPGk8-MvQFLuwIkzj-30" style="edgeStyle=orthogonalEdgeStyle;rounded=0;orthogonalLoop=1;jettySize=auto;html=1;entryX=0;entryY=0.5;entryDx=0;entryDy=0;entryPerimeter=0;" edge="1" parent="1" source="bn2ZPGk8-MvQFLuwIkzj-20" target="bn2ZPGk8-MvQFLuwIkzj-21">
          <mxGeometry relative="1" as="geometry">
            <Array as="points">
              <mxPoint x="820" y="320" />
            </Array>
          </mxGeometry>
        </mxCell>
        <mxCell id="bn2ZPGk8-MvQFLuwIkzj-20" value="Interface Endpoint for S3" style="sketch=0;outlineConnect=0;fontColor=#232F3E;gradientColor=none;fillColor=#4D27AA;strokeColor=none;dashed=0;verticalLabelPosition=bottom;verticalAlign=top;align=center;html=1;fontSize=12;fontStyle=0;aspect=fixed;pointerEvents=1;shape=mxgraph.aws4.endpoint;" vertex="1" parent="1">
          <mxGeometry x="789" y="220.5" width="61" height="61" as="geometry" />
        </mxCell>
        <mxCell id="bn2ZPGk8-MvQFLuwIkzj-31" style="edgeStyle=orthogonalEdgeStyle;rounded=0;orthogonalLoop=1;jettySize=auto;html=1;exitX=0.5;exitY=0;exitDx=0;exitDy=0;exitPerimeter=0;" edge="1" parent="1" source="bn2ZPGk8-MvQFLuwIkzj-21" target="bn2ZPGk8-MvQFLuwIkzj-8">
          <mxGeometry relative="1" as="geometry" />
        </mxCell>
        <mxCell id="bn2ZPGk8-MvQFLuwIkzj-21" value="PrivateLink" style="sketch=0;points=[[0,0,0],[0.25,0,0],[0.5,0,0],[0.75,0,0],[1,0,0],[0,1,0],[0.25,1,0],[0.5,1,0],[0.75,1,0],[1,1,0],[0,0.25,0],[0,0.5,0],[0,0.75,0],[1,0.25,0],[1,0.5,0],[1,0.75,0]];outlineConnect=0;fontColor=#232F3E;gradientColor=#945DF2;gradientDirection=north;fillColor=#5A30B5;strokeColor=#ffffff;dashed=0;verticalLabelPosition=bottom;verticalAlign=top;align=center;html=1;fontSize=12;fontStyle=0;aspect=fixed;shape=mxgraph.aws4.resourceIcon;resIcon=mxgraph.aws4.vpc_privatelink;" vertex="1" parent="1">
          <mxGeometry x="910" y="290" width="60" height="60" as="geometry" />
        </mxCell>
        <mxCell id="bn2ZPGk8-MvQFLuwIkzj-26" value="On-Premise DataCenter" style="text;html=1;resizable=0;autosize=1;align=center;verticalAlign=middle;points=[];fillColor=none;strokeColor=none;rounded=0;" vertex="1" parent="1">
          <mxGeometry x="30" y="347.5" width="140" height="20" as="geometry" />
        </mxCell>
        <mxCell id="bn2ZPGk8-MvQFLuwIkzj-32" value="Region" style="points=[[0,0],[0.25,0],[0.5,0],[0.75,0],[1,0],[1,0.25],[1,0.5],[1,0.75],[1,1],[0.75,1],[0.5,1],[0.25,1],[0,1],[0,0.75],[0,0.5],[0,0.25]];outlineConnect=0;gradientColor=none;html=1;whiteSpace=wrap;fontSize=12;fontStyle=0;container=1;pointerEvents=0;collapsible=0;recursiveResize=0;shape=mxgraph.aws4.group;grIcon=mxgraph.aws4.group_region;strokeColor=#147EBA;fillColor=none;verticalAlign=top;align=left;spacingLeft=30;fontColor=#147EBA;dashed=1;" vertex="1" parent="1">
          <mxGeometry x="570" y="80" width="420" height="380" as="geometry" />
        </mxCell>
        <mxCell id="bn2ZPGk8-MvQFLuwIkzj-17" value="Amazon EC2" style="sketch=0;outlineConnect=0;fontColor=#232F3E;gradientColor=none;strokeColor=#ffffff;fillColor=#232F3E;dashed=0;verticalLabelPosition=middle;verticalAlign=bottom;align=center;html=1;whiteSpace=wrap;fontSize=10;fontStyle=1;spacing=3;shape=mxgraph.aws4.productIcon;prIcon=mxgraph.aws4.ec2;" vertex="1" parent="bn2ZPGk8-MvQFLuwIkzj-32">
          <mxGeometry x="92.5" y="230" width="57.5" height="85" as="geometry" />
        </mxCell>
      </root>
    </mxGraphModel>
  </diagram>
</mxfile>
